<?xml version="1.0" encoding="utf-8"?>
<!-- Generator: Adobe Illustrator 22.0.1, SVG Export Plug-In . SVG Version: 6.00 Build 0)  -->
<svg version="1.1" id="Layer_1" xmlns="http://www.w3.org/2000/svg" xmlns:xlink="http://www.w3.org/1999/xlink" x="0px" y="0px"
	 viewBox="0 0 1920 1920" style="enable-background:new 0 0 1920 1920;" xml:space="preserve">
<style type="text/css">
	.st0{fill:none;stroke:#555555;stroke-width:177.7555;stroke-miterlimit:10;}
	.st1{fill:none;stroke:#FF6666;stroke-width:175.5349;stroke-miterlimit:10;}
	.st2{fill:#59A7FF;}
	.st3{fill:none;stroke:#FF6666;stroke-width:177.7555;stroke-miterlimit:10;}
	.st4{fill:#555555;}
	.st5{fill:none;stroke:#59A7FF;stroke-width:177.3298;stroke-miterlimit:10;}
	.st6{fill:none;stroke:#FF6666;stroke-width:175.5336;stroke-miterlimit:10;}
</style>
<g>
	<path class="st0" d="M1503.3,280.5c23.6,18.9,46.3,38.9,67.8,60.1c160.4,157.8,259.8,377.3,259.8,620
		c0,480.3-389.4,869.7-869.7,869.7c-275.3,0-520.8-127.9-680.2-327.6"/>
	<path class="st1" d="M91.4,960.7C91.4,480.4,480.8,91,961.2,91c33,0,65.6,1.8,97.6,5.4"/>
	<polygon class="st2" points="1058.8,1737.5 863.5,1737.5 863.5,1658.7 863.5,262.7 863.5,183.9 1058.8,183.9 	"/>
	<path class="st3" d="M346.1,1575.7"/>
	<path class="st3" d="M1571.1,340.7"/>
	<polygon class="st4" points="343.5,1690.2 211.7,1558.4 280,1490.1 1490.5,279.6 1558.8,211.2 1690.6,343 	"/>
	<path class="st5" d="M874.5,271.9c28.4-3.5,57.3-5.4,86.7-5.4c383.4,0,694.1,310.8,694.1,694.1"/>
	<path class="st5" d="M1047.8,1649.5c-28.4,3.5-57.3,5.4-86.7,5.4c-29.3,0-58.3-1.8-86.7-5.4C532,1606.9,267,1314.7,267,960.7"/>
	<line class="st6" x1="1051.3" y1="95.6" x2="1051.3" y2="95.6"/>
</g>
</svg>
