<?xml version="1.0" encoding="iso-8859-1"?>
<!-- Generator: Adobe Illustrator 18.1.1, SVG Export Plug-In . SVG Version: 6.00 Build 0)  -->
<svg version="1.1" id="Capa_1" xmlns="http://www.w3.org/2000/svg" xmlns:xlink="http://www.w3.org/1999/xlink" x="0px" y="0px"
	 viewBox="0 0 612 612" style="enable-background:new 0 0 612 612;" xml:space="preserve">
<g>
	<g>
		<path style="fill:#010002;" d="M306,612c-28.152,0-55.284-3.672-81.396-11.016c-26.112-7.347-50.49-17.646-73.134-30.906
			s-43.248-29.172-61.812-47.736c-18.564-18.562-34.476-39.168-47.736-61.812c-13.26-22.646-23.562-47.022-30.906-73.135
			C3.672,361.284,0,334.152,0,306s3.672-55.284,11.016-81.396s17.646-50.49,30.906-73.134s29.172-43.248,47.736-61.812
			s39.168-34.476,61.812-47.736s47.022-23.562,73.134-30.906S277.848,0,306,0c42.024,0,81.702,8.058,119.034,24.174
			s69.768,37.944,97.308,65.484s49.368,59.976,65.484,97.308S612,263.976,612,306c0,28.152-3.672,55.284-11.016,81.396
			c-7.347,26.109-17.646,50.487-30.906,73.134c-13.26,22.644-29.172,43.248-47.736,61.812
			c-18.562,18.564-39.168,34.479-61.812,47.736c-22.646,13.26-47.022,23.562-73.136,30.906C361.284,608.328,334.152,612,306,612z
			 M471.852,256.428H140.148c-2.448,0-4.488,0.918-6.12,2.754c-1.632,1.836-2.448,3.774-2.448,5.814v82.008
			c0,2.04,0.816,3.979,2.448,5.814c1.632,1.836,3.672,2.754,6.12,2.754h331.704c2.448,0,4.488-0.918,6.12-2.754
			s2.448-3.774,2.448-5.814v-82.008c0-2.04-0.816-3.978-2.448-5.814S474.3,256.428,471.852,256.428z"/>
	</g>
</g>
<g>
</g>
<g>
</g>
<g>
</g>
<g>
</g>
<g>
</g>
<g>
</g>
<g>
</g>
<g>
</g>
<g>
</g>
<g>
</g>
<g>
</g>
<g>
</g>
<g>
</g>
<g>
</g>
<g>
</g>
</svg>
