<?xml version="1.0" encoding="iso-8859-1"?>
<!-- Generator: Adobe Illustrator 19.0.0, SVG Export Plug-In . SVG Version: 6.00 Build 0)  -->
<svg version="1.1" id="Capa_1" xmlns="http://www.w3.org/2000/svg" xmlns:xlink="http://www.w3.org/1999/xlink" x="0px" y="0px"
	 viewBox="0 0 496 496" style="enable-background:new 0 0 496 496;" xml:space="preserve">
<circle style="fill:#C2DD90;" cx="248.166" cy="127.982" r="80"/>
<path style="fill:#565656;" d="M232.152,222.56V256h32v-33.44c40.176-6.752,71.808-38.384,78.56-78.56h33.44v-32h-33.44
	c-6.752-40.176-38.384-71.808-78.56-78.56V0h-32v33.44c-40.176,6.752-71.808,38.384-78.56,78.56h-33.44v32h33.44
	C160.344,184.176,191.976,215.808,232.152,222.56z M186.424,112c5.824-22.384,23.344-39.904,45.728-45.728V80h32V66.272
	c22.384,5.824,39.904,23.344,45.728,45.728h-13.728v32h13.728c-5.824,22.384-23.344,39.904-45.728,45.728V176h-32v13.728
	c-22.384-5.824-39.904-23.344-45.728-45.728h13.728v-32H186.424z"/>
<path style="fill:#C0A494;" d="M152.168,368c0.512,0,0.992-0.144,1.504-0.144c-0.88-5.168-1.488-10.432-1.488-15.856
	c0-37.04,21.152-69.136,51.952-85.136C192.504,250.656,173.624,240,152.168,240c-35.344,0-64,28.656-64,64
	C88.168,339.344,116.808,368,152.168,368z"/>
<path style="fill:#F8CE86;" d="M87.736,374.976c-19.264,4.352-34.32,10.048-44.928,14.896c-11.424,5.216-18.656,16.56-18.656,29.12
	V448h64.032c0.08-10.8,5.536-20.752,14.576-26.688c10.896-7.152,24.592-14.544,45.936-21.648
	C125.288,398.816,103.992,389.728,87.736,374.976z"/>
<path style="fill:#C5A5C2;" d="M408.28,374.976c-16.192,14.704-37.408,23.76-60.72,24.672c21.392,7.104,35.104,14.512,46,21.68
	c9.024,5.936,14.496,15.888,14.56,26.672h63.728v-29.024c0-12.544-7.248-23.904-18.656-29.12
	C442.584,385.008,427.544,379.328,408.28,374.976z"/>
<path style="fill:#7F5947;" d="M291.912,266.88c25.376,13.184,44.672,37.248,50.368,66.064c2.4,12.112,2.288,23.824,0.4,34.944
	c0.4,0,0.784,0.128,1.184,0.128c35.344,0,64-28.656,64-64s-28.656-64-64-64C322.408,240,303.512,250.656,291.912,266.88z"/>
<path style="fill:#77A0D4;" d="M248.168,448c-24.8,0-47.36-9.536-64.416-25.024c-19.264,4.352-34.32,10.048-44.928,14.896
	c-11.44,5.216-18.672,16.56-18.672,29.12V496h256v-29.024c0-12.544-7.248-23.904-18.656-29.12
	c-10.608-4.848-25.664-10.544-44.912-14.896C295.528,438.464,272.968,448,248.168,448z"/>
<circle style="fill:#F5DDCF;" cx="248.166" cy="351.982" r="64"/>
<circle style="fill:#565656;" cx="248.166" cy="127.982" r="16"/>
<g>
</g>
<g>
</g>
<g>
</g>
<g>
</g>
<g>
</g>
<g>
</g>
<g>
</g>
<g>
</g>
<g>
</g>
<g>
</g>
<g>
</g>
<g>
</g>
<g>
</g>
<g>
</g>
<g>
</g>
</svg>
