<?xml version="1.0" encoding="iso-8859-1"?>
<!-- Generator: Adobe Illustrator 16.0.0, SVG Export Plug-In . SVG Version: 6.00 Build 0)  -->
<!DOCTYPE svg PUBLIC "-//W3C//DTD SVG 1.1//EN" "http://www.w3.org/Graphics/SVG/1.1/DTD/svg11.dtd">
<svg version="1.1" id="Capa_1" xmlns="http://www.w3.org/2000/svg" xmlns:xlink="http://www.w3.org/1999/xlink" x="0px" y="0px"
	 width="33px" height="33px" viewBox="0 0 33 33" style="enable-background:new 0 0 33 33;" xml:space="preserve">
<g>
	<path d="M31.5,0h-30C0.671,0,0,0.672,0,1.5v30C0,32.328,0.671,33,1.5,33h30c0.828,0,1.5-0.672,1.5-1.5v-30
		C33,0.672,32.328,0,31.5,0z M12.5,20.666V14.5h8v6.166H12.5z M20.5,23.666V30h-8v-6.334H20.5z M20.5,5.832V11.5h-8V5.832H20.5z
		 M23.5,5.832H30V11.5h-6.5V5.832z M9.5,5.832V11.5H3V5.832H9.5z M3,14.5h6.5v6.166H3V14.5z M23.5,14.5H30v6.166h-6.5V14.5z
		 M3,23.666h6.5V30H3V23.666z M23.5,30v-6.334H30V30H23.5z"/>
</g>
<g>
</g>
<g>
</g>
<g>
</g>
<g>
</g>
<g>
</g>
<g>
</g>
<g>
</g>
<g>
</g>
<g>
</g>
<g>
</g>
<g>
</g>
<g>
</g>
<g>
</g>
<g>
</g>
<g>
</g>
</svg>
