<svg height="512pt" viewBox="0 0 512 512" width="512pt" xmlns="http://www.w3.org/2000/svg"><path d="m362.039062 0h-106.039062l-100 256 100 256h106.039062l149.960938-149.960938v-212.078124zm0 0" fill="#ffd87c"/><path d="m149.960938 0-149.960938 149.960938v212.078124l149.960938 149.960938h106.039062v-512zm0 0" fill="#ffebbe"/><path d="m337.1875 60h-81.1875l-60 196 60 196h81.1875l114.8125-114.8125v-162.375zm0 0" fill="#ff1b10"/><path d="m174.8125 60-114.8125 114.8125v162.375l114.8125 114.8125h81.1875v-392zm0 0" fill="#ff451b"/><path d="m352.167969 202.261719-42.429688-42.429688-53.738281 53.742188-20 42.425781 20 42.425781 53.738281 53.742188 42.429688-42.429688-53.742188-53.738281zm0 0" fill="#ffebbe"/><path d="m202.261719 159.832031-42.429688 42.429688 53.742188 53.738281-53.742188 53.738281 42.429688 42.429688 53.738281-53.742188v-84.851562zm0 0" fill="#fff"/></svg>